<?xml version="1.0" encoding="UTF-8"?>
<svg xmlns="http://www.w3.org/2000/svg" viewBox="0 0 900 360" role="img" aria-labelledby="title desc">
  <title id="title">Raqib | رقيب, inverse</title>
  <desc id="desc">The light Raqib governed-observer mark with Latin and Arabic wordmarks for dark backgrounds.</desc>
  <defs>
    <path id="latin-wordmark-inverse" d="M35.42 112.50L35.42 62.31Q38.14 62.23 40.61 62.18Q43.07 62.14 45.35 62.14Q62.05 62.14 69.65 68.03Q77.26 73.92 77.26 86.92Q77.26 100.37 69.43 106.44Q61.61 112.50 44.12 112.50ZM5.98 120.76L51.86 120.76Q73.92 120.76 84.55 112.81Q95.19 104.85 95.19 88.42Q95.19 76.73 87.89 69.21Q80.60 61.70 66.09 58.54Q72.86 56.69 77.43 53.75Q82 50.80 84.64 46.41Q87.63 41.57 89.74 32.21Q91.85 22.85 93.08 19.78Q95.80 12.39 100.55 9.71Q105.29 7.03 116.46 7.03L118.04 7.03L118.04 0.18Q113.99 -0.62 110.57 -1.01Q107.14 -1.41 104.06 -1.41Q97.82 -1.41 93.38 -0.13Q88.95 1.14 85.87 3.78Q79.45 9.40 75.23 25.75Q73.65 31.64 72.69 34.54Q69.08 45.53 62.97 49.75Q56.87 53.96 44.47 53.96Q41.84 53.96 36.04 53.70L35.42 53.61L35.42 10.81L38.50 8.26L48.78 7.38L48.78 0L5.98 0L5.98 7.38L16.17 8.26L19.25 10.81L19.25 109.95L16.17 112.50L5.98 113.55ZM172.40 16.52L172.40 48.25Q149.81 42.01 142.73 36.83Q135.66 31.64 135.66 23.20Q135.66 16.44 139.57 12.44Q143.48 8.44 150.07 8.44Q154.29 8.44 159.78 10.46Q165.28 12.48 172.40 16.52ZM172.40 10.46Q163.70 4.48 156.44 1.63Q149.19 -1.23 142.87 -1.23Q132.41 -1.23 126.12 5.10Q119.84 11.43 119.84 21.80Q119.84 33.31 129.29 39.90Q138.73 46.49 172.40 54.58L172.40 60.29Q172.40 71.63 168.71 76.03Q165.01 80.42 155.87 80.42Q152.45 80.42 149.11 79.72Q145.77 79.01 142.16 77.61L142.16 62.49L129.77 62.49Q126.52 62.49 125.33 63.68Q124.14 64.86 124.14 68.03Q124.14 76.82 134.30 82.62Q144.45 88.42 160.53 88.42Q174.68 88.42 181.10 82.27Q187.51 76.11 187.51 62.49L187.51 10.28L190.59 7.38L200.08 6.50L200.08 0L174.77 0ZM266.48 78.84Q262.09 79.89 258.75 80.38Q255.41 80.86 252.77 80.86Q238.62 80.86 230.49 70.93Q222.36 61 222.36 43.77Q222.36 27.25 229.57 18.11Q236.78 8.96 249.70 8.96Q252.77 8.96 256.86 9.62Q260.95 10.28 266.48 11.69ZM282.13 85.43Q281.86 80.16 281.73 76.95Q281.60 73.74 281.60 72.33L281.60 -29L284.68 -32.08L294.17 -32.78L294.17 -39.20L252.07 -39.20L252.07 -32.78L263.41 -32.08L266.48 -29L266.48 5.98Q259.54 2.64 253.39 1.05Q247.23 -0.53 241.61 -0.53Q225.70 -0.53 215.95 10.94Q206.19 22.41 206.19 41.40Q206.19 63.11 219.72 75.85Q233.26 88.59 256.38 88.59Q261.91 88.59 268.33 87.80Q274.74 87.01 282.13 85.43ZM318.03 87.45L325.06 87.45L325.06 10.28L328.14 7.38L337.80 6.50L337.80 0L297.38 0L297.38 6.50L306.87 7.38L309.94 10.28L309.94 75.41L297.38 75.41L297.38 81.04ZM318.73 127.44Q323.13 127.44 326.16 124.37Q329.19 121.29 329.19 116.98Q329.19 112.68 326.16 109.69Q323.13 106.70 318.73 106.70Q314.43 106.70 311.39 109.69Q308.36 112.68 308.36 116.98Q308.36 121.38 311.39 124.41Q314.43 127.44 318.73 127.44ZM367.82 8.26Q370.63 8.17 373.14 8.13Q375.64 8.09 377.75 8.09Q395.42 8.09 403.68 16.74Q411.94 25.40 411.94 43.95Q411.94 60.73 404.60 69.79Q397.26 78.84 383.64 78.84Q380.47 78.84 376.52 78.13Q372.56 77.43 367.82 75.94ZM360.96 132.45L367.82 132.45L367.82 82.09Q374.50 85.25 380.61 86.84Q386.71 88.42 392.52 88.42Q408.42 88.42 418.27 77.04Q428.11 65.65 428.11 47.37Q428.11 23.99 414.88 12Q401.66 0 375.90 0L352.70 0L352.70 120.41L338.81 120.41L338.81 126.04Z"/>
    <path id="arabic-wordmark-inverse" d="M75 4.75L63.18 4.75Q62.61 2.66 48.32 0.71Q36.84 -0.76 30.81 -0.76Q23.97 -0.76 18.49 0.26Q13.01 1.28 9.19 3.28Q5.36 5.27 3.30 8.19Q1.23 11.11 1.23 14.91Q1.23 22.59 7.97 29.34Q5.93 22.78 5.93 20.13Q5.93 12.29 16.71 9.78Q19.37 9.16 23.57 8.85Q27.77 8.54 33.61 8.54Q36.93 8.54 40.80 8.76Q44.67 8.97 49.27 9.45Q61.90 10.68 61.90 13.10Q61.90 15.90 57.20 21.84L61.57 31.38Q66.65 25.25 66.65 16.19L66.65 15Q66.65 14.48 66.55 13.86L75 13.86ZM40.44 -13.01L36.08 -20.46L25.40 -14.24L29.53 -6.79ZM106.19 4.75L66.50 4.75L66.50 13.86L90.81 13.86Q91.57 13.86 91.57 15.14Q91.57 16.09 90.97 17.87Q90.38 19.65 89.53 21.41Q88.67 23.16 87.75 24.49Q86.82 25.82 86.16 25.82L90.47 35.84Q93.61 32.28 95.84 25.44Q98.07 18.94 98.07 13.86L106.19 13.86ZM92.47 -21.03L82.50 -14.67L86.68 -7.93L96.69 -13.91ZM68.54 -15.33L72.58 -8.31L82.50 -14.67L78.42 -21.27ZM135.81 13.58Q135.81 6.31 134.91 5.27Q134.57 4.75 130.44 4.75L97.64 4.75L97.64 13.86L125.17 13.86L115.68 17.85Q110.46 20.89 110.46 25.82Q110.46 30.62 115.49 37.78Q120.81 45.28 125.27 45.28Q131.30 45.28 134.05 31.90Q135 27.53 135.40 23Q135.81 18.47 135.81 13.58ZM130.87 21.08Q130.87 24.02 127.93 29.62Q124.75 35.65 122.23 35.65Q121.52 35.65 120.43 34.79Q119.34 33.94 118.31 32.80Q117.29 31.66 116.49 30.50Q115.68 29.34 115.49 28.58L130.59 20.36Q130.87 20.55 130.87 21.08ZM128.12 55.97L118.15 62.33L122.33 69.07L132.34 63.09ZM104.19 61.66L108.23 68.69L118.15 62.33L114.07 55.73ZM179.10 7.17Q179.10 -4.98 169.51 -13.53Q161.25 -20.89 153.56 -20.89Q143.83 -20.89 134.57 -8.12Q135.38 -8.73 136.66 -9.45Q139.75 -10.73 142.97 -11.51Q146.20 -12.29 149.57 -12.34Q164.95 -12.34 173.69 4.22Q174.30 5.46 174.30 6.65Q174.30 13.10 164.72 19.84L168.84 28.81Q171.12 27.34 173.02 25.04Q174.92 22.74 176.27 19.82Q177.63 16.90 178.36 13.67Q179.10 10.44 179.10 7.17Z"/>
  </defs>
  <g fill="#F7F2E9">
    <g transform="translate(40 48) scale(.55)">
      <path d="M117 64H245C171 103 137 165 137 246v17c0 73 28 132 86 174-70-25-106-80-106-166V64Z"/>
      <path d="M363 416H235c74-39 108-101 108-182v-17c0-73-28-132-86-174 70 25 106 80 106 166v207Z"/>
      <circle cx="240" cy="240" r="31" fill="#D87553"/>
    </g>
    <use href="#latin-wordmark-inverse" transform="translate(360 188) scale(1 -1)"/>
    <use href="#arabic-wordmark-inverse" transform="translate(360 315) scale(1.2 -1.2)"/>
  </g>
  <circle cx="678.73" cy="71.02" r="11" fill="#D87553"/>
</svg>
